# xmcd
#
# Track frame offsets:
#	150
#	11137
#	24371
#	40415
#	56921
#	72793
#	83708
#	98928
#	107611
#	124923
#	143393
#	162743
#
# Disc length: 2398 seconds
#
# Revision: 1
# Processed by: cddbd v1.5.1PL0 Copyright (c) Steve Scherf et al.
# Submitted via: audiograbber 1.83.01
#
DISCID=9f095c0c
DTITLE=Blues Explosion - Damage
DYEAR=2004
DGENRE=Blues
TTITLE0=Damage
TTITLE1=Burn It Off
TTITLE2=Spoiled
TTITLE3=Crunchy
TTITLE4=Hot Gossip
TTITLE5=Mars, Arizona
TTITLE6=You Been My Baby
TTITLE7=Rivals
TTITLE8=Help These Blues
TTITLE9=Fed Up And Low Down
TTITLE10=Rattling
TTITLE11=Blowing My Mind
EXTD=
EXTT0=
EXTT1=
EXTT2=
EXTT3=
EXTT4=
EXTT5=
EXTT6=
EXTT7=
EXTT8=
EXTT9=
EXTT10=
EXTT11=
PLAYORDER=
